<?xml version="1.0" encoding="UTF-8"?>
<svg id="Layer_2" data-name="Layer 2" xmlns="http://www.w3.org/2000/svg" viewBox="0 0 921 257.91">
  <g id="Layer_1-2" data-name="Layer 1">
    <g>
      <polygon points="246.19 157.73 191.52 157.73 138.23 88.46 246.19 88.46 246.19 157.73" style="fill: #fff;"/>
      <polygon points="107.44 157.73 0 157.73 0 88.46 54.16 88.46 107.44 157.73" style="fill: #fff;"/>
    </g>
    <g>
      <polygon points="157.73 0 157.73 54.67 88.46 107.95 88.46 0 157.73 0" style="fill: #fff;"/>
      <polygon points="157.73 138.75 157.73 246.19 88.46 246.19 88.46 192.03 157.73 138.75" style="fill: #fff;"/>
    </g>
    <g>
      <path d="M318.28,39.95h45.95l40.97,117.01,40.74-117.01h45.95v160.7h-34.4v-104.11l-37.8,103.66h-29.42l-37.57-103.66v104.11h-34.4V39.95Z" style="fill: #fff;"/>
      <path d="M503.42,139.99c0-38.25,23.99-63.37,60.88-63.37s59.53,24.9,59.53,65.64v6.79h-85.33c.91,19.24,11.09,28.52,26.71,28.52,11.32,0,19.46-4.75,22.63-14.71l34.18,2.04c-6.56,24.22-28.29,38.48-57.49,38.48-37.12,0-61.11-25.12-61.11-63.37ZM588.97,128.22c-.91-17.65-10.64-26.48-24.67-26.48s-23.99,9.73-25.8,26.48h50.47Z" style="fill: #fff;"/>
      <path d="M626.77,139.99c0-38.7,19.46-63.37,49.79-63.37,17.2,0,30.1,7.47,36.44,19.92v-56.58h33.95v160.7h-32.37l-.68-17.88c-6.79,13.13-20.6,20.6-37.34,20.6-30.78,0-49.79-24.44-49.79-63.37ZM713,139.99c0-24.67-9.05-37.35-25.35-37.35s-26.03,14.26-26.03,37.35,10.41,37.34,26.03,37.34,25.35-12.9,25.35-37.34Z" style="fill: #fff;"/>
      <path d="M862.83,199.07c-7.02,3.39-16.98,5.21-28.74,5.21-47.53,0-77.63-34.86-77.63-83.74s27.39-84.2,77.63-84.2,77.41,36.44,77.41,84.2c0,29.88-10.64,52.74-29.2,67.67l21.28,26.48h-28.29l-12.45-15.62ZM844.27,173.72l-22.41-27.39h28.52l11.77,15.62c8.83-8.6,13.81-21.5,13.81-41.42,0-29.42-12.67-55.23-41.87-55.23s-42.1,25.8-42.1,55.23,12.9,54.77,42.1,54.77c3.85,0,7.24-.45,10.18-1.58Z" style="fill: #fff;"/>
    </g>
  </g>
</svg>